<?xml version="1.0" encoding="UTF-8" standalone="no"?>
<svg width="250px" height="250px" viewBox="0 0 250 250" version="1.1" xmlns="http://www.w3.org/2000/svg" xmlns:xlink="http://www.w3.org/1999/xlink">
    <!-- Generator: Sketch 45.1 (43504) - http://www.bohemiancoding.com/sketch -->
    <title>Artboard</title>
    <desc>Created with Sketch.</desc>
    <defs>
        <path d="M15.6759916,0.186225366 C27.6467201,0.186225366 39.6174489,0.186225366 51.5881773,0.186225366 C50.977426,0.919127151 51.0995762,1.89632946 51.4660272,2.62923121 C56.3520385,14.1113586 61.3602005,25.7156364 66.2462122,37.1977637 C66.7348134,38.4192668 67.2234145,39.76292 68.2006172,40.6179721 C58.6728944,40.6179721 49.2673218,40.6179721 39.7395991,40.6179721 C39.9838994,40.0072204 40.3503504,39.2743189 39.9838994,38.6635672 C39.3731481,36.8313128 38.6402462,34.9990584 38.0294949,33.1668041 C33.876385,33.1668041 29.8454254,33.1668041 25.6923155,33.1668041 C24.9594136,34.9990584 24.2265121,36.8313128 23.4936102,38.6635672 C23.37146,39.2743189 23.737911,39.76292 23.8600611,40.2515212 C16.1645927,40.2515212 8.59127453,40.2515212 0.895806132,40.2515212 C1.99515899,39.6407694 2.36160995,38.4192668 2.72806049,37.3199139 C7.00332094,25.7156364 11.4007316,14.1113586 15.6759916,2.5070809 C16.1645927,1.77417916 16.1645927,0.796976847 15.6759916,0.186225366 Z" id="path-1"></path>
    </defs>
    <g id="Page-1" stroke="none" stroke-width="1" fill="none" fill-rule="evenodd">
        <g id="Artboard">
            <g id="logo-ikea" transform="translate(7.000000, 105.000000)">
                <path d="M113.550979,0.186225366 C129.064066,0.186225366 144.577153,0.186225366 160.09024,0.30837567 C160.09024,4.33933531 160.09024,8.3702951 160.09024,12.523405 C159.479489,12.156954 158.746587,12.156954 158.135835,12.156954 C151.78402,12.156954 145.310055,12.156954 138.95824,12.156954 C138.95824,13.2563065 138.95824,14.3556593 138.95824,15.3328616 C143.722101,15.3328616 148.485962,15.3328616 153.249824,15.3328616 C154.104876,15.3328616 154.959928,15.2107114 155.570679,14.7221103 C155.570679,18.5087692 155.570679,22.1732779 155.570679,25.9599368 C154.837778,25.3491855 153.860575,25.2270353 152.883373,25.2270353 C148.241662,25.2270353 143.599951,25.2270353 138.95824,25.2270353 C138.95824,26.4485379 138.95824,27.670041 138.95824,28.891544 C145.065754,28.891544 151.295419,28.891544 157.402933,28.891544 C158.380136,28.891544 159.479489,28.7693934 160.212391,28.1586421 C160.212391,32.311752 160.212391,36.5870124 160.212391,40.8622725 C144.699303,40.8622725 129.064066,40.8622725 113.550979,40.7401223 C114.03958,40.0072204 114.16173,39.1521683 114.16173,38.2971162 C114.16173,27.4257402 114.16173,16.432214 114.16173,5.56083823 C114.16173,3.60643356 114.528181,1.6520289 113.550979,0.186225366 Z" id="Shape" fill="#FFFFFF" fill-rule="nonzero"></path>
                <path d="M76.9058914,0.186225366 C81.9140533,0.186225366 87.0443658,0.186225366 92.0525278,0.186225366 C95.8391867,0.30837567 99.6258456,0.186225366 103.412505,0.30837567 C99.6258456,5.68298849 95.8391867,11.0576011 92.0525278,16.3100639 C91.9303772,16.432214 91.808227,16.798665 92.0525278,16.9208152 C96.5720886,24.1276824 101.091649,31.3345497 105.61121,38.541417 C106.221962,39.3964691 107.077014,39.76292 108.054216,40.1293706 C97.3049901,40.1293706 86.5557647,40.1293706 75.8065389,40.1293706 C75.6843887,40.2515212 75.440088,40.3736713 75.3179378,40.3736713 C75.6843887,40.0072204 76.1729899,39.76292 76.1729899,39.2743189 C76.4172902,37.9306657 75.440088,36.953463 74.8293366,35.9762607 C72.3863306,32.1896018 69.9433249,28.4029429 67.6224694,24.6162836 C67.6224694,29.0136942 67.6224694,33.4111048 67.6224694,37.8085151 C67.6224694,38.6635672 67.7446196,39.5186192 68.3553709,40.1293706 C59.4383998,40.1293706 50.6435786,40.1293706 41.7266075,40.1293706 C42.2152087,39.5186192 42.3373589,38.7857173 42.3373589,37.9306657 C42.3373589,26.0820874 42.3373589,14.2335087 42.3373589,2.38493064 C42.3373589,1.6520289 42.2152087,0.919127151 41.6044574,0.30837567 C50.5214284,0.30837567 59.3162497,0.30837567 68.2332207,0.30837567 C67.6224694,0.919127151 67.6224694,1.89632946 67.6224694,2.75138151 C67.6224694,6.90449129 67.6224694,10.935451 67.6224694,15.0885608 C70.798377,10.935451 73.9742845,6.78234111 77.1501921,2.62923121 C77.5166431,2.01847977 77.2723423,1.04127741 76.9058914,0.186225366 Z" id="Shape" fill="#FFFFFF" fill-rule="nonzero"></path>
                <path d="M0.928410057,0.552676238 C9.8453815,0.552676238 18.6402024,0.552676238 27.5571738,0.552676238 C26.9464221,1.16342772 26.9464221,2.01847977 26.8242719,2.75138151 C26.8242719,14.4778095 26.8242719,26.3263878 26.8242719,38.0528158 C26.8242719,38.9078679 26.9464221,39.8850702 27.4350232,40.6179721 C18.5180522,40.6179721 9.72323091,40.6179721 0.806259875,40.6179721 C1.17271083,39.8850702 1.17271083,39.0300181 1.17271083,38.174966 C1.17271083,26.6928387 1.17271083,15.0885608 1.17271083,3.60643356 C1.29486101,2.5070809 1.41701119,1.40772829 0.928410057,0.552676238 Z" id="Shape" fill="#FFFFFF" fill-rule="nonzero"></path>
                <g id="Group" transform="translate(166.034850, 0.000000)">
                    <g id="Shape">
                        <g>
                            <mask id="mask-2" fill="white">
                                <use xlink:href="#path-1"></use>
                            </mask>
                            <use id="Mask" fill="#FFFFFF" fill-rule="nonzero" xlink:href="#path-1"></use>
                            <path d="M28.8682231,24.2498326 C29.9675755,21.9289771 30.9447782,19.6081216 32.0441307,17.2872661 C33.1434831,19.6081216 34.1206858,21.9289771 35.2200383,24.2498326 C33.021333,24.2498326 30.9447782,24.2498326 28.8682231,24.2498326 Z" fill="#FDCC00" fill-rule="nonzero" mask="url(#mask-2)"></path>
                        </g>
                    </g>
                </g>
            </g>
        </g>
    </g>
</svg>