<?xml version="1.0" encoding="UTF-8" standalone="no"?>
<svg width="250px" height="250px" viewBox="0 0 250 250" version="1.1" xmlns="http://www.w3.org/2000/svg" xmlns:xlink="http://www.w3.org/1999/xlink">
    <!-- Generator: Sketch 45.1 (43504) - http://www.bohemiancoding.com/sketch -->
    <title>Artboard</title>
    <desc>Created with Sketch.</desc>
    <defs></defs>
    <g id="Page-1" stroke="none" stroke-width="1" fill="none" fill-rule="evenodd">
        <g id="Artboard" fill="#FFFFFF">
            <g id="logo-pressidium" transform="translate(6.000000, 106.000000)">
                <path d="M82.3204117,11.0503326 C82.3204117,12.5115336 81.2232063,13.4234796 79.4201886,13.4234796 L77.0183395,13.4234796 L77.0183395,8.60021164 L79.396705,8.60021164 C81.2492992,8.60021164 82.3204117,9.43518364 82.3204117,10.9981469 L82.3204117,11.0503326 L82.3204117,11.0503326 Z M79.7854889,4.34837764 L71.9524078,4.34837764 L71.9524078,22.6016484 L77.0183395,22.6016484 L77.0183395,17.3909013 L79.5258648,17.3909013 C84.0686343,17.3909013 87.387648,15.1208211 87.387648,10.818106 L87.387648,10.763311 C87.387648,6.6967364 84.410451,4.34968228 79.7854889,4.34968228 L79.7854889,4.34837764 Z M100.520192,10.9472658 C100.520192,12.2780024 99.5547557,13.1103651 97.8039238,13.1103651 L94.4614265,13.1103651 L94.4614265,8.73067601 L97.7791356,8.73067601 C99.4751724,8.73067601 100.520192,9.43518364 100.520192,10.8963846 L100.520192,10.9485704 L100.520192,10.9472658 Z M105.610912,10.6354559 L105.610912,10.5832701 C105.610912,8.78286176 105.064266,7.37384651 103.994458,6.3301315 C102.765484,5.08028278 100.859399,4.34837764 98.0400643,4.34837764 L89.3954948,4.34837764 L89.3954948,22.6042577 L94.4614265,22.6042577 L94.4614265,17.0751775 L96.6819302,17.0751775 L100.363635,22.6042577 L106.212353,22.6042577 L101.853538,16.2402055 C104.149711,15.2747691 105.610912,13.4508771 105.610912,10.6354559 L105.610912,10.6354559 Z M112.94301,15.4065381 L121.716739,15.4065381 L121.716739,11.4156329 L112.941705,11.4156329 L112.941705,8.6497881 L122.62999,8.6497881 L122.62999,4.34968228 L107.927959,4.34968228 L107.927959,22.6055624 L122.75915,22.6055624 L122.75915,18.3041519 L112.94301,18.3041519 L112.94301,15.4065381 Z M133.420698,11.5460972 C130.911868,10.9981469 130.259547,10.5806609 130.259547,9.77178173 L130.259547,9.71959598 C130.259547,9.06988339 130.859683,8.54672124 132.088657,8.54672124 C133.731204,8.54672124 135.535526,9.17295025 137.206775,10.3471296 L139.740393,6.77240574 C137.75342,5.18334964 135.351571,4.34837764 132.217817,4.34837764 C127.828995,4.34837764 125.13882,6.77371038 125.13882,10.1905724 L125.13882,10.2427581 C125.13882,14.0236157 128.168203,15.0934236 132.033862,15.9792767 C134.516599,16.5272271 135.11804,16.9968988 135.11804,17.7274994 L135.11804,17.7796851 C135.11804,18.5872596 134.387439,19.0308385 133.029305,19.0308385 C130.911868,19.0308385 128.927505,18.300238 127.098395,16.839037 L124.280364,20.2037132 C126.550444,22.2128646 129.581132,23.2291821 132.84535,23.2291821 C137.283748,23.2291821 140.234853,21.0112877 140.234853,17.2826158 L140.234853,17.2304301 C140.234853,13.8135681 137.622956,12.4593479 133.420698,11.5460972 L133.420698,11.5460972 Z M149.773103,11.5460972 C147.265578,10.9981469 146.614561,10.5806609 146.614561,9.77178173 L146.614561,9.71959598 C146.614561,9.06988339 147.214697,8.54672124 148.441062,8.54672124 C150.084913,8.54672124 151.887931,9.17295025 153.559179,10.3471296 L156.092798,6.77240574 C154.109739,5.18334964 151.705281,4.34837764 148.571526,4.34837764 C144.184009,4.34837764 141.493834,6.77371038 141.493834,10.1905724 L141.493834,10.2427581 C141.493834,14.0236157 144.523217,15.0934236 148.388876,15.9792767 C150.869004,16.5272271 151.470445,16.9968988 151.470445,17.7274994 L151.470445,17.7796851 C151.470445,18.5872596 150.739844,19.0308385 149.38171,19.0308385 C147.265578,19.0308385 145.27991,18.300238 143.453409,16.839037 L140.634074,20.2037132 C142.906763,22.2128646 145.936146,23.2291821 149.200365,23.2291821 C153.638763,23.2291821 156.589867,21.0112877 156.589867,17.2826158 L156.589867,17.2304301 C156.589867,13.8135681 153.97797,12.4593479 149.773103,11.5460972 L149.773103,11.5460972 Z M160.25722,22.6042577 L162.318558,22.6042577 L162.318558,4.34837764 L160.25722,4.34837764 L160.25722,22.6042577 Z M181.807326,13.5291557 C181.807326,17.597035 178.856222,20.7007825 174.236478,20.7007825 L169.953333,20.7007825 L169.953333,6.25315752 L174.236478,6.25315752 C178.856222,6.25315752 181.807326,9.43648829 181.807326,13.47697 L181.807326,13.5291557 L181.807326,13.5291557 Z M174.236478,4.34837764 L167.888082,4.34837764 L167.888082,22.6042577 L174.236478,22.6042577 C179.980825,22.6042577 183.950856,18.6120478 183.950856,13.47697 L183.950856,13.4247842 C183.950856,8.28709714 179.980825,4.34837764 174.236478,4.34837764 Z M188.601911,22.6042577 L190.663248,22.6042577 L190.663248,4.34837764 L188.601911,4.34837764 L188.601911,22.6042577 Z M209.395323,14.9629592 C209.395323,18.9538645 207.253098,20.9878041 203.887117,20.9878041 C200.360665,20.9878041 198.298023,18.7960026 198.298023,14.8337995 L198.298023,4.34837764 L196.232772,4.34837764 L196.232772,14.9629592 C196.232772,20.1267392 199.31695,22.892584 203.834931,22.892584 C208.403794,22.892584 211.457965,20.1006463 211.457965,14.8077066 L211.457965,4.34837764 L209.395323,4.34837764 L209.395323,14.9629592 L209.395323,14.9629592 Z M231.265066,4.34837764 L224.603555,14.3093327 L217.944653,4.34837764 L215.857223,4.34837764 L215.857223,22.6042577 L217.866375,22.6042577 L217.866375,7.84351826 L224.527886,17.597035 L224.632257,17.597035 L231.291159,7.81742538 L231.291159,22.6042577 L233.353801,22.6042577 L233.353801,4.34837764 L231.265066,4.34837764 Z M45.8517048,26.7321506 C45.4346383,25.9742108 44.5573389,25.5947876 43.7194129,25.8099557 C42.881487,26.0251237 42.2955349,26.7802901 42.2952459,27.6454012 C42.2952459,28.5573472 42.9449585,29.3192591 43.8047187,29.4979953 L43.8373348,31.872447 C42.9387724,32.0371705 42.285506,32.819335 42.2835041,33.7328689 C42.2835041,33.7720083 42.2874181,33.8137569 42.2887227,33.8542008 L34.2964751,35.9077101 C34.0407698,35.3054954 33.4940701,34.8765086 32.8483205,34.7713654 L32.7361211,22.9799951 C33.670246,22.8625772 34.3943233,22.0667445 34.3943233,21.1026127 C34.3943233,21.0804338 34.3904094,21.0582549 34.3904094,21.0347713 L42.250888,19.0164874 C42.6031847,19.84482 43.4891092,20.3115088 44.3714862,20.1335797 C45.2538631,19.9556505 45.889697,19.1821028 45.8934534,18.2819729 C46.3869096,17.6240226 46.3987253,16.7226298 45.9226847,16.051971 C45.4466442,15.3813123 44.5918283,15.0950636 43.8079117,15.3438057 C43.0239952,15.5925478 42.4906062,16.3192834 42.4883332,17.1417143 L37.2175724,14.7516069 C37.2567117,14.5989636 37.2788907,14.4384924 37.2788907,14.2728027 L37.2788907,14.2362727 C38.9670851,13.8640701 40.6446322,13.4451183 42.309597,12.9799007 C42.7086361,13.7586463 43.5885755,14.1634017 44.4395499,13.9596386 C45.2905244,13.7558754 45.891709,12.9964695 45.894758,12.1214451 C45.8940098,12.031814 45.8861573,11.9423832 45.8712745,11.8539932 C48.0539435,11.0699023 49.8961004,10.1970956 51.0728891,9.23687779 C51.2972878,9.36473288 51.5503887,9.45083937 51.8178407,9.47693224 L51.8765497,20.27025 C51.162845,19.9234415 50.3084825,20.0596077 49.7379461,20.6110953 C49.1674096,21.162583 49.002321,22.0118311 49.3247033,22.7368966 C49.6470856,23.4619622 50.3882163,23.9082825 51.1798699,23.8541064 C50.4127394,24.6682041 48.8445576,25.6440777 45.8517048,26.7321506 L45.8517048,26.7321506 Z M26.3668503,6.49190733 C26.6029908,6.43580765 26.8365221,6.3836219 27.0713579,6.33143615 C27.3777074,7.17555604 28.2342951,7.68891239 29.1231408,7.56107769 C30.0119865,7.433243 30.6891857,6.69929585 30.7452347,5.80305543 C31.6401029,5.73858898 32.5386008,5.74295062 33.4328009,5.81610186 C34.5182645,5.95569875 35.9024915,6.30273398 36.8914115,6.69934569 C36.4307717,7.28781311 36.3636185,8.09365122 36.7205031,8.75024567 C36.120367,8.99943263 35.3349715,9.25122887 34.3630119,9.50302512 C33.6885111,9.68045667 31.9924742,10.0901148 30.63434,10.4162757 C30.3604294,9.66884719 29.6495385,9.17148391 28.8535013,9.17034096 C28.1489937,9.17034096 27.5358111,9.55782015 27.2096502,10.1266448 L22.5181512,8.03660554 C22.6016484,7.83438575 22.6499202,7.6152056 22.6577481,7.38428366 L26.3655457,6.49190733 L26.3668503,6.49190733 Z M22.6629667,31.7863405 C22.7464639,31.5723789 22.7934311,31.3440662 22.7934311,31.1040118 C22.7934311,30.1607543 22.0980559,29.381882 21.1965471,29.2357619 L21.1874146,24.6290648 C21.6518678,24.522084 22.0497841,24.2428903 22.3146268,23.8671529 L27.0530929,26.1528887 C26.8164882,26.8659119 27.0229621,27.6513877 27.579612,28.1558922 C28.1362619,28.6603966 28.9381969,28.7888647 29.6245871,28.4834923 C30.3109774,28.1781199 30.7524847,27.4964491 30.7504533,26.745197 C30.7504533,25.8071581 30.0655154,25.0295905 29.1692251,24.8795564 L29.1653112,21.1939378 C30.0796205,21.0444277 30.7511228,20.2547498 30.751758,19.3282972 C30.7473173,18.5041518 30.2115934,17.7770278 29.4257766,17.5285776 C28.6399599,17.2801274 27.7836046,17.5671203 27.3061938,18.2389197 L22.6003438,16.1045225 C22.7179079,15.6015874 22.6254603,15.0724612 22.3443238,14.6391861 C22.0631873,14.2059109 21.6176379,13.9058997 21.1104406,13.8083495 L21.1065267,9.1833874 C21.5331452,9.10641342 21.9062733,8.88723326 22.1815531,8.57803269 L26.99047,10.722867 C26.8545692,11.4325672 27.1336753,12.1578394 27.7102847,12.5933448 C28.2868941,13.0288502 29.0608497,13.0989412 29.7063169,12.7741097 C30.351784,12.4492782 30.7566448,11.7859474 30.7504533,11.063379 L30.7504533,11.0398955 C32.1164153,10.7137345 33.8372404,10.2962485 34.5234831,10.1162077 C35.4445616,9.87615323 36.3760772,9.60217804 37.127552,9.26557995 C37.6848558,9.76098511 38.4807041,9.88393921 39.1615302,9.57981815 C39.8423563,9.27569709 40.2818617,8.6009176 40.2847899,7.85526005 C40.2832086,7.18316352 39.9261091,6.56207862 39.3460613,6.22257771 C38.7660136,5.88307681 38.0496238,5.87585034 37.4628454,6.20358106 C37.4080504,6.17748818 37.3623879,6.15139531 37.3062882,6.12530243 L37.2162678,6.08616312 C36.1164531,5.58517992 34.794849,5.28250257 33.311469,5.17291249 C33.0557418,5.13905922 32.7983292,5.11945928 32.5404246,5.11420352 L32.5404246,5.13377318 C31.9182344,5.11796063 31.295644,5.13189272 30.674784,5.17552178 C30.4115832,4.27187966 29.5252312,3.69819569 28.5930516,3.82813785 C27.660872,3.95808002 26.9651993,4.75229202 26.9591586,5.69346535 L26.9604632,5.70781643 C26.7138855,5.76261147 26.4660032,5.81740651 26.2168163,5.87742012 L22.5742509,6.75153144 C22.3222365,5.96522518 21.5917185,5.43130409 20.7660147,5.42992731 C19.7222997,5.42992731 18.8703673,6.28055504 18.8703673,7.32427004 C18.8703673,8.26622284 19.5696563,9.05031373 20.4737745,9.18991062 L20.4776884,13.799217 C19.6149185,13.9283601 18.9523393,14.6307495 18.8736995,15.4995796 C18.7950597,16.3684096 19.3207543,17.1783524 20.1463145,17.4603101 C20.9718748,17.7422677 21.8831948,17.4231156 22.3524615,16.6876983 L27.0335233,18.809049 C26.8865477,19.3256461 26.9660937,19.880367 27.2523195,20.3348438 C27.5385453,20.7893205 28.004466,21.1007058 28.5338636,21.1913285 L28.5351682,24.8808611 C28.0655632,24.9612052 27.6432503,25.2149654 27.3518563,25.5918919 L22.5820788,23.291805 C22.8165666,22.4127315 22.3934502,21.4910376 21.5739729,21.0958015 C20.7544955,20.7005655 19.76979,20.9432632 19.2278397,21.6740467 L16.2441194,20.2363293 C16.3948571,19.726399 16.324803,19.1766231 16.0510046,18.7207884 C15.7772062,18.2649538 15.324769,17.9448574 14.8037927,17.8383941 L14.7489977,14.7385605 C15.6871419,14.6115108 16.387727,13.8117969 16.3902395,12.8650921 C16.8557539,12.1934864 16.8388598,11.2992455 16.3483105,10.6457019 C15.8577612,9.99215823 15.0038163,9.72620708 14.2289294,9.98564548 C13.4540426,10.2450839 12.9323832,10.9715985 12.9342382,11.788761 L3.72867185,7.61390096 C3.76781117,7.45734371 3.79390404,7.29687253 3.79390404,7.12857348 C3.79390404,7.08682488 3.78868547,7.04638092 3.78607618,7.00593697 L12.7228859,4.88328158 C13.0487614,5.73484579 13.9347146,6.23377283 14.8318459,6.07094828 C15.7289773,5.90812374 16.3830949,5.12968205 16.3889349,4.21791326 C16.3889349,4.14354857 16.3837163,4.07179316 16.3758884,4.0013424 L19.9349566,3.15332396 C25.225287,1.84607091 29.781103,1.20940476 33.8620287,1.20940476 C36.655271,1.20940476 39.5111361,1.45076386 42.100854,1.8904288 L42.100854,1.89434273 C42.1063909,2.78113518 42.7255885,3.54575332 43.5918579,3.73551351 C44.4581272,3.9252737 45.3402693,3.48953078 45.7160218,2.68626149 C48.5014363,3.46904775 50.6214824,4.52580919 51.4473219,5.7873997 C50.8382135,5.97497714 50.3649951,6.4574199 50.1892102,7.07003557 C50.0134253,7.68265125 50.1588423,8.3426062 50.5758198,8.82461036 C49.5373234,9.62435699 47.8804258,10.43715 45.6690547,11.2368967 C45.2595372,10.4715269 44.3827524,10.081774 43.5401958,10.2905655 C42.6976393,10.4993569 42.1042993,11.253417 42.0995494,12.1214451 C42.0995494,12.2049423 42.1086819,12.2871349 42.1178144,12.3680228 C40.4760785,12.8297912 38.821558,13.2448352 37.1562542,13.6126529 C36.8355567,12.7551433 35.9474944,12.2496892 35.0464498,12.411826 C34.1454052,12.5739628 33.4892499,13.3572881 33.4875959,14.2728027 C33.0308189,14.9474706 33.0558782,15.8384676 33.5498532,16.4863957 C34.0438282,17.1343237 34.8963761,17.3944502 35.6679231,17.132654 C36.4394701,16.8708578 36.95767,16.1456182 36.955339,15.3308688 L42.1934837,17.7014065 C42.1321654,17.8840566 42.0995494,18.0797532 42.0995494,18.2819729 C42.0995494,18.3211123 42.1034633,18.3602516 42.1060726,18.3993909 L34.2625543,20.4163701 C33.929327,19.5695702 33.0417102,19.0787051 32.1473305,19.2466204 C31.2529508,19.4145356 30.6038165,20.1939179 30.6004193,21.1039174 C30.6004193,22.0106448 31.2449133,22.7699475 32.1007596,22.9539022 L32.212959,34.776584 C31.6924061,34.8692137 31.2475226,35.171891 30.9657195,35.5932909 L22.661662,31.7863405 L22.6629667,31.7863405 Z M3.58907497,21.9571544 C3.33810353,21.4640061 2.88457511,21.104804 2.34705412,20.973453 L2.23224547,8.98899548 C2.74497046,8.89767041 3.1872447,8.60282093 3.4677431,8.18924885 L12.6680909,12.3641089 C12.623733,12.5232754 12.5976401,12.6902698 12.5976401,12.8650921 C12.5976401,13.7783427 13.2512666,14.5428639 14.1136361,14.7202955 L14.1697358,17.8214337 C13.233145,17.9502618 12.5346505,18.7494953 12.5324079,19.6949021 C12.5324079,19.7366507 12.5363218,19.7783993 12.5389311,19.8214526 L3.58777033,21.9571544 L3.58907497,21.9571544 Z M52.5106065,20.3315683 L52.4545068,9.43126971 C53.3063694,9.22898814 53.9081151,8.46857594 53.9091846,7.59302666 C53.9091846,6.58845097 53.1198752,5.7665254 52.1270413,5.70651179 C51.2998971,4.1683368 48.9763266,2.93153452 45.8856255,2.05872785 C45.9301038,1.52978419 45.7512349,1.00635833 45.3923513,0.615254458 C45.0334676,0.224150587 44.5273108,0.00104977012 43.9965014,0 C43.199467,0.00272232855 42.4884037,0.501403619 42.214358,1.24984872 C39.4532787,0.797942607 36.6598427,0.572792184 33.8620287,0.57665254 C29.7276126,0.57665254 25.1209155,1.21723262 19.7849226,2.5375321 L16.1971522,3.39207376 C15.8096669,2.60025005 14.9277604,2.17971732 14.0685873,2.3770781 C13.2094142,2.57443888 12.5994312,3.33767374 12.5963355,4.21921791 L12.5989447,4.26357579 L3.64126072,6.39014512 C3.28987678,5.56027348 2.40280861,5.09250475 1.51952767,5.27131296 C0.636246725,5.45012118 0.000952561487,6.22607147 -3.38813179e-21,7.12726884 C-3.38813179e-21,8.06922163 0.694070478,8.85070324 1.5981886,8.99421405 L1.7143019,20.9251812 C0.743746408,21.0184538 0.00223889068,21.8327577 -3.38813179e-21,22.8077821 C-0.00335361646,23.5168689 0.389054292,24.168623 1.01730494,24.4974337 C1.64555558,24.8262443 2.404741,24.7772054 2.98546882,24.3703018 C3.56619665,23.9633982 3.87149448,23.2665765 3.77694367,22.5638138 L12.6863559,20.4372444 C12.1495393,21.1788065 12.2198404,22.198156 12.8533762,22.8590029 C13.4869121,23.5198498 14.502389,23.633085 15.2659344,23.1280257 C16.0294797,22.6229664 16.3225959,21.6441414 15.9623164,20.8025447 L18.9434273,22.2402621 C18.782113,22.7799062 18.8687736,23.3633205 19.1799801,23.8327761 C19.4911866,24.3022317 19.9947987,24.609245 20.5546624,24.6708134 L20.5624902,29.2422851 C19.6600962,29.4036833 19.00223,30.1873019 18.999527,31.1040118 C18.9986635,31.8991738 19.4944825,32.6102419 20.240916,32.8843229 C20.9873495,33.158404 21.8255039,32.9371543 22.339415,32.3303769 L30.7126187,36.1764667 C30.5203386,36.9038683 30.7764492,37.6761374 31.3652833,38.1444952 C31.9541175,38.6128529 32.7642092,38.6886394 33.4296978,38.3376272 C34.0951865,37.9866149 34.4900952,37.2752506 34.4360719,36.5248066 L42.4335382,34.4699927 C42.7859074,35.2981433 43.6720087,35.7643701 44.5541018,35.5857383 C45.4361949,35.4071066 46.07109,34.6328644 46.0734942,33.7328689 C46.0734942,32.7896115 45.3794238,32.0055206 44.4687824,31.8646191 L44.4400803,29.5201743 C44.9492349,29.4522692 45.4090359,29.1806485 45.714235,28.7674863 C46.019434,28.354324 46.1439002,27.8349947 46.0591432,27.3283728 C49.0285123,26.250737 50.9463387,25.1626641 51.8517614,24.0419751 C52.3802168,24.0872094 52.9034751,23.9091368 53.2946378,23.5509428 C53.6858005,23.1927488 53.9091387,22.687151 53.9104893,22.1567649 C53.9104893,21.2865675 53.3142671,20.5520531 52.5106065,20.3328729 L52.5106065,20.3315683 Z M236.019188,7.60998703 C235.102023,7.60998703 234.388383,6.87547259 234.388383,5.98831484 L234.388383,5.97918233 C234.388383,5.09724315 235.107242,4.34837764 236.02832,4.34837764 C236.945485,4.34837764 237.659125,5.08289207 237.659125,5.97004983 L237.659125,5.97918233 C237.659125,6.86242616 236.941571,7.60998703 236.019188,7.60998703 Z M237.510396,5.97004983 C237.510396,5.15464748 236.87373,4.48797452 236.02832,4.48797452 C235.180302,4.48797452 234.538417,5.16899856 234.538417,5.97918233 L234.538417,5.98831484 C234.538417,6.80371719 235.175083,7.47039015 236.019188,7.47039015 C236.868511,7.47039015 237.510396,6.79067075 237.510396,5.97918233 L237.510396,5.97004983 Z M236.544959,6.7684918 L236.060937,6.13704423 L235.631709,6.13704423 L235.631709,6.7684918 L235.383826,6.7684918 L235.383826,5.09593851 L236.132692,5.09593851 C236.314699,5.08702805 236.492865,5.1503241 236.628457,5.27206542 C236.719844,5.35481304 236.769987,5.47372157 236.765444,5.59692171 L236.765444,5.60605422 C236.765444,5.87611548 236.584099,6.0378913 236.332302,6.09660027 L236.850246,6.7684918 L236.543655,6.7684918 L236.544959,6.7684918 Z M236.507125,5.60996815 C236.507125,5.43384124 236.363614,5.32164188 236.123559,5.32164188 L235.631709,5.32164188 L235.631709,5.91655943 L236.110513,5.91655943 C236.345349,5.91655943 236.507125,5.81218793 236.507125,5.61910066 L236.507125,5.60996815 L236.507125,5.60996815 Z" id="Shape"></path>
            </g>
        </g>
    </g>
</svg>