<?xml version="1.0" encoding="UTF-8" standalone="no"?>
<svg height="16px" viewBox="0 0 266 47" version="1.1" xmlns="http://www.w3.org/2000/svg" xmlns:xlink="http://www.w3.org/1999/xlink">
    <defs>
        <rect id="path-1" x="0.5" y="0.5" width="380" height="129"></rect>
        <rect id="path-3" x="0.5" y="0.5" width="380" height="129"></rect>
        <rect id="path-5" x="0.5" y="0.5" width="380" height="129"></rect>
        <rect id="path-7" x="0.5" y="0.5" width="380" height="129"></rect>
    </defs>
    <g id="Page-1" stroke="none" stroke-width="1" fill="none" fill-rule="evenodd">
        <g id="Ikea_logo" transform="translate(-53.000000, -40.000000)">
            <g id="g35" transform="translate(0.499990, 0.632000)">
                <g id="path43-Clipped">
                    <mask id="mask-2" fill="white">
                        <use xlink:href="#path-1"></use>
                    </mask>
                    <g id="SVGID_7_"></g>
                    <path d="M137.5,85.857 C137.5,85.857 138.112,85.327 138.194,84.999 C138.423,83.932 138.04,82.896 138.04,82.896 L128.5,67.857 L128.5,67.76 L128.542,83.567 L128.814,84.821 L129.332,85.501 L99.17,85.501 L99.667,84.821 L99.927,83.477 L99.915,42.313 L99.652,41.121 L99.159,40.5 L129.333,40.5 L128.827,41.162 L128.567,42.479 L128.549,57.231 L139.478,42.931 C139.478,42.931 139.704,42.371 139.704,41.564 C139.704,41.056 139.207,40.228 139.207,40.228 L169.237,40.262 L156.17,58.844 L171.918,84.01 L173.097,84.914 L174.438,85.5 L137.5,85.5 L137.5,85.857 L137.5,85.857 Z" id="path43" fill="#BEC3CC" fill-rule="nonzero" mask="url(#mask-2)"></path>
                </g>
            </g>
            <g id="g45" transform="translate(0.499990, 0.632000)">
                <g id="polygon53-Clipped">
                    <mask id="mask-4" fill="white">
                        <use xlink:href="#path-3"></use>
                    </mask>
                    <g id="SVGID_9_"></g>
                    <polygon id="polygon53" fill="#BEC3CC" fill-rule="nonzero" mask="url(#mask-4)" points="82.426 83.688 82.693 85.094 83.183 85.938 53.037 85.857 53.392 84.999 53.5 83.566 53.5 42.357 53.378 41.144 53.025 40.5 83.195 40.5 82.693 41.162 82.438 42.479"></polygon>
                </g>
            </g>
            <g id="g55" transform="translate(0.499990, 0.632000)">
                <g id="polygon63-Clipped">
                    <mask id="mask-6" fill="white">
                        <use xlink:href="#path-5"></use>
                    </mask>
                    <g id="SVGID_11_"></g>
                    <polygon id="polygon63" fill="#BEC3CC" fill-rule="nonzero" mask="url(#mask-6)" points="226.211 57.105 227.582 56.855 228.422 56.363 228.398 69.084 227.516 68.568 226.211 68.311 209.5 68.33 209.5 72.5 231.319 72.5 232.856 72.194 233.612 71.611 233.662 85.966 180.805 85.863 181.289 85.005 181.5 83.568 181.5 42.357 181.277 40.926 180.767 40.056 233.449 40.155 233.49 53.965 232.633 53.601 231.199 53.5 209.5 53.5 209.5 57.169"></polygon>
                </g>
            </g>
            <g id="g65" transform="translate(0.499990, 0.632000)">
                <g id="path73-Clipped">
                    <mask id="mask-8" fill="white">
                        <use xlink:href="#path-7"></use>
                    </mask>
                    <g id="SVGID_13_"></g>
                    <path d="M276.449,59.522 L272.902,67.5 L280.007,67.5 L276.449,59.522 Z M258.298,42.421 C258.298,42.421 258.522,41.615 258.426,40.973 C258.339,40.345 257.921,40.105 257.921,40.105 L298.806,40.117 C298.806,40.117 298.385,40.345 298.297,40.988 C298.205,41.615 298.428,42.432 298.428,42.432 L316.278,84.249 L316.846,85.139 L317.632,85.858 L285.344,85.914 C285.344,85.914 285.839,84.87 285.788,84.435 C285.737,83.972 285.577,83.375 285.577,83.375 L283.48,77.5 L269.426,77.5 L267.128,83.374 C267.128,83.374 266.91,83.425 266.91,83.877 C266.91,84.757 267.439,85.5 267.439,85.5 L241.402,85.5 C241.402,85.5 242.298,85.146 242.793,84.063 C243.197,83.207 243.119,83.257 243.119,83.257 L258.298,42.421 Z" id="path73" fill="#BEC3CC" fill-rule="nonzero" mask="url(#mask-8)"></path>
                </g>
            </g>
        </g>
    </g>
</svg>
